<?xml version="1.0" encoding="UTF-8" standalone="no"?>
<!-- Created with Inkscape (http://www.inkscape.org/) -->

<svg
   xmlns:dc="http://purl.org/dc/elements/1.1/"
   xmlns:cc="http://creativecommons.org/ns#"
   xmlns:rdf="http://www.w3.org/1999/02/22-rdf-syntax-ns#"
   xmlns:svg="http://www.w3.org/2000/svg"
   xmlns="http://www.w3.org/2000/svg"
   xmlns:xlink="http://www.w3.org/1999/xlink"
   version="1.1"
   width="150"
   height="150"
   id="svg2">
  <defs
     id="defs4">
    <linearGradient
       id="linearGradient5518">
      <stop
         id="stop5520"
         style="stop-color:#f7941d;stop-opacity:1"
         offset="0" />
      <stop
         id="stop5528"
         style="stop-color:#f7941d;stop-opacity:1"
         offset="0.25" />
      <stop
         id="stop5526"
         style="stop-color:#000000;stop-opacity:1"
         offset="0.25" />
      <stop
         id="stop5522"
         style="stop-color:#000000;stop-opacity:1"
         offset="1" />
    </linearGradient>
    <linearGradient
       id="linearGradient5502">
      <stop
         id="stop5504"
         style="stop-color:#f7941d;stop-opacity:1"
         offset="0" />
      <stop
         id="stop5512"
         style="stop-color:#f7941d;stop-opacity:1"
         offset="0.25" />
      <stop
         id="stop5510"
         style="stop-color:#000000;stop-opacity:1"
         offset="0.25" />
      <stop
         id="stop5506"
         style="stop-color:#000000;stop-opacity:1"
         offset="1" />
    </linearGradient>
    <linearGradient
       id="linearGradient5492">
      <stop
         id="stop5494"
         style="stop-color:#f7941d;stop-opacity:1"
         offset="0" />
      <stop
         id="stop5496"
         style="stop-color:#f7941d;stop-opacity:1"
         offset="0.33000001" />
      <stop
         id="stop5498"
         style="stop-color:#000000;stop-opacity:1"
         offset="0.33000001" />
      <stop
         id="stop5500"
         style="stop-color:#000000;stop-opacity:1"
         offset="1" />
    </linearGradient>
    <linearGradient
       id="linearGradient3083">
      <stop
         id="stop3085"
         style="stop-color:#f7941d;stop-opacity:1"
         offset="0" />
      <stop
         id="stop3093"
         style="stop-color:#f7941d;stop-opacity:1"
         offset="0.33000001" />
      <stop
         id="stop3091"
         style="stop-color:#000000;stop-opacity:1"
         offset="0.33000001" />
      <stop
         id="stop3087"
         style="stop-color:#000000;stop-opacity:1"
         offset="1" />
    </linearGradient>
    <linearGradient
       id="linearGradient3071">
      <stop
         id="stop3073"
         style="stop-color:#ffaa00;stop-opacity:1"
         offset="0" />
      <stop
         id="stop3081"
         style="stop-color:#ffaa00;stop-opacity:1"
         offset="0.25" />
      <stop
         id="stop3079"
         style="stop-color:#00000f;stop-opacity:1"
         offset="0.25" />
      <stop
         id="stop3075"
         style="stop-color:#000000;stop-opacity:1"
         offset="1" />
    </linearGradient>
    <linearGradient
       id="linearGradient3059">
      <stop
         id="stop3061"
         style="stop-color:#ff8600;stop-opacity:1"
         offset="0" />
      <stop
         id="stop3069"
         style="stop-color:#ff8600;stop-opacity:1"
         offset="0.25" />
      <stop
         id="stop3067"
         style="stop-color:#333333;stop-opacity:1"
         offset="0.25" />
      <stop
         id="stop3063"
         style="stop-color:#333333;stop-opacity:1"
         offset="1" />
    </linearGradient>
    <linearGradient
       id="linearGradient4602">
      <stop
         id="stop4604"
         style="stop-color:#0047ab;stop-opacity:1"
         offset="0" />
      <stop
         id="stop4610"
         style="stop-color:#0047ab;stop-opacity:0.49803922"
         offset="0.78292686" />
      <stop
         id="stop4606"
         style="stop-color:#0047ab;stop-opacity:0"
         offset="1" />
    </linearGradient>
    <linearGradient
       id="linearGradient4594">
      <stop
         id="stop4596"
         style="stop-color:#000507;stop-opacity:1"
         offset="0" />
      <stop
         id="stop4598"
         style="stop-color:#0047ab;stop-opacity:0"
         offset="1" />
    </linearGradient>
    <linearGradient
       id="linearGradient4558">
      <stop
         id="stop4560"
         style="stop-color:#0047ab;stop-opacity:1"
         offset="0" />
      <stop
         id="stop4566"
         style="stop-color:#0047ab;stop-opacity:0.49803922"
         offset="0.5" />
      <stop
         id="stop4562"
         style="stop-color:#0047ab;stop-opacity:0"
         offset="1" />
    </linearGradient>
    <pattern
       patternTransform="matrix(0.91648679,0.40006494,-0.40006494,0.91648679,114.16268,8.37658)"
       id="pattern3179"
       xlink:href="#pattern3151" />
    <pattern
       patternTransform="matrix(0.91648679,0.40006494,-0.40006494,0.91648679,507.50497,177.91782)"
       id="pattern3131"
       xlink:href="#pattern3128" />
    <pattern
       patternTransform="translate(316.0625,233.43062)"
       id="pattern3128"
       xlink:href="#pattern3125" />
    <pattern
       patternTransform="translate(316.0625,233.43062)"
       id="pattern3125"
       xlink:href="#pattern3119" />
    <pattern
       id="pattern3119"
       patternTransform="translate(-78.9375,148.42374)"
       height="154.88876"
       width="154.875"
       patternUnits="userSpaceOnUse">
      <path
         id="path3243"
         style="color:#000000;fill:#333333;stroke:#333333;stroke-width:3.43219995"
         d="m 73.47948,1.7333554 c -1.5973,0.10936 -3.15,0.35671 -4.7194,0.53629 h -0.1063 l -3.7538,20.4859996 c -6.119,1.3934 -11.875,3.7582 -17.054,6.9717 l -16.85,-12.12 c -4.5522,3.5341 -8.6946,7.6559 -12.334,12.12 l 11.691,17.054 c -3.5496,5.4246 -6.2191,11.619 -7.7225,18.126 -1.8e-4,0.031 -1.8e-4,0.10198 0,0.10702 l -20.379,3.2177 c -0.3725,3.0431 -0.53624,6.1881 -0.53624,9.3313 0,2.5718 0.071,5.1092 0.32165,7.6152 l 20.379,3.6467 c 1.4493,7.0769 4.2026,13.686005 8.0441,19.521005 l -12.12,16.625 c 3.4711,4.3092 7.4784,8.2326 11.798,11.691 l 17.161,-11.798 c 5.9977,3.826 12.693,6.5088 19.95,7.8298 l 3.2176,20.272 c 2.2866,0.20798 4.6316,0.2145 6.9719,0.2145 3.3039,0 6.46,-0.12522 9.6531,-0.53628 l 3.8614,-20.701 c 6.8901,-1.7147 13.363,-4.6894 18.984,-8.6878 l 16.517,12.013 c 4.2835,-3.6443 8.2005,-7.8332 11.584,-12.335 l -12.013,-17.376 c 3.2534,-5.618505 5.5073,-11.818005 6.6498,-18.448005 l 20.272,-3.2177 c 0.17838,-2.1154 0.21297,-4.167 0.21297,-6.3282 0,-3.7556 -0.43675,-7.4379 -0.96556,-11.047 l -20.593,-3.754 c -1.6138,-5.9591 -4.2617,-11.519 -7.615,-16.518 l 12.12,-16.625 c -3.7569,-4.5944 -8.0424,-8.8386 -12.763,-12.442 l -17.483,12.013 c -5.0248,-2.9718 -10.432,-5.2519 -16.303,-6.5427 L 86.3396,2.2688854 c -2.9286,-0.34452 -5.8815,-0.53628 -8.9021,-0.53628 -0.81656,0 -1.6567,-0.024 -2.4672,0 -0.39495,0.0126 -0.78593,-0.024 -1.1796,0 -0.1063,0.007 -0.21621,-0.007 -0.32269,0 z m 2.7888,52.1269996 c 0.39207,-0.0213 0.78323,0 1.18,0 12.696,0 23.06,10.364 23.06,23.06 0,12.696 -10.364,22.953 -23.06,22.953 -12.696,0 -22.953,-10.257 -22.953,-22.953 0,-12.299 9.6261,-22.444 21.773,-23.06 z" />
    </pattern>
    <pattern
       xlink:href="#pattern3131-4"
       id="pattern3151"
       patternTransform="matrix(0.91648679,0.40006494,-0.40006494,0.91648679,336.16268,191.87658)" />
    <pattern
       patternTransform="matrix(0.91648679,0.40006494,-0.40006494,0.91648679,161.50497,195.91782)"
       id="pattern3131-4"
       xlink:href="#pattern3128-8" />
    <pattern
       patternTransform="translate(316.0625,233.43062)"
       id="pattern3128-8"
       xlink:href="#pattern3125-8" />
    <pattern
       patternTransform="translate(316.0625,233.43062)"
       id="pattern3125-8"
       xlink:href="#pattern3119-2" />
    <pattern
       id="pattern3119-2"
       patternTransform="translate(-78.9375,148.42374)"
       height="154.88876"
       width="154.875"
       patternUnits="userSpaceOnUse">
      <path
         id="path3243-4"
         style="color:#000000;fill:#333333;stroke:#333333;stroke-width:3.43219995"
         d="m 73.47948,1.7333554 c -1.5973,0.10936 -3.15,0.35671 -4.7194,0.53629 h -0.1063 l -3.7538,20.4859996 c -6.119,1.3934 -11.875,3.7582 -17.054,6.9717 l -16.85,-12.12 c -4.5522,3.5341 -8.6946,7.6559 -12.334,12.12 l 11.691,17.054 c -3.5496,5.4246 -6.2191,11.619 -7.7225,18.126 -1.8e-4,0.031 -1.8e-4,0.10198 0,0.10702 l -20.379,3.2177 c -0.3725,3.0431 -0.53624,6.1881 -0.53624,9.3313 0,2.5718 0.071,5.1092 0.32165,7.6152 l 20.379,3.6467 c 1.4493,7.0769 4.2026,13.686005 8.0441,19.521005 l -12.12,16.625 c 3.4711,4.3092 7.4784,8.2326 11.798,11.691 l 17.161,-11.798 c 5.9977,3.826 12.693,6.5088 19.95,7.8298 l 3.2176,20.272 c 2.2866,0.20798 4.6316,0.2145 6.9719,0.2145 3.3039,0 6.46,-0.12522 9.6531,-0.53628 l 3.8614,-20.701 c 6.8901,-1.7147 13.363,-4.6894 18.984,-8.6878 l 16.517,12.013 c 4.2835,-3.6443 8.2005,-7.8332 11.584,-12.335 l -12.013,-17.376 c 3.2534,-5.618505 5.5073,-11.818005 6.6498,-18.448005 l 20.272,-3.2177 c 0.17838,-2.1154 0.21297,-4.167 0.21297,-6.3282 0,-3.7556 -0.43675,-7.4379 -0.96556,-11.047 l -20.593,-3.754 c -1.6138,-5.9591 -4.2617,-11.519 -7.615,-16.518 l 12.12,-16.625 c -3.7569,-4.5944 -8.0424,-8.8386 -12.763,-12.442 l -17.483,12.013 c -5.0248,-2.9718 -10.432,-5.2519 -16.303,-6.5427 L 86.3396,2.2688854 c -2.9286,-0.34452 -5.8815,-0.53628 -8.9021,-0.53628 -0.81656,0 -1.6567,-0.024 -2.4672,0 -0.39495,0.0126 -0.78593,-0.024 -1.1796,0 -0.1063,0.007 -0.21621,-0.007 -0.32269,0 z m 2.7888,52.1269996 c 0.39207,-0.0213 0.78323,0 1.18,0 12.696,0 23.06,10.364 23.06,23.06 0,12.696 -10.364,22.953 -23.06,22.953 -12.696,0 -22.953,-10.257 -22.953,-22.953 0,-12.299 9.6261,-22.444 21.773,-23.06 z" />
    </pattern>
    <pattern
       patternTransform="matrix(0.91648679,0.40006494,-0.40006494,0.91648679,89.20266,452.60141)"
       id="pattern3179-1"
       xlink:href="#pattern3151-7" />
    <pattern
       xlink:href="#pattern3131-4-4"
       id="pattern3151-7"
       patternTransform="matrix(0.91648679,0.40006494,-0.40006494,0.91648679,336.16268,191.87658)" />
    <pattern
       patternTransform="matrix(0.91648679,0.40006494,-0.40006494,0.91648679,161.50497,195.91782)"
       id="pattern3131-4-4"
       xlink:href="#pattern3128-8-0" />
    <pattern
       patternTransform="translate(316.0625,233.43062)"
       id="pattern3128-8-0"
       xlink:href="#pattern3125-8-9" />
    <pattern
       patternTransform="translate(316.0625,233.43062)"
       id="pattern3125-8-9"
       xlink:href="#pattern3119-2-4" />
    <pattern
       id="pattern3119-2-4"
       patternTransform="translate(-78.9375,148.42374)"
       height="154.88876"
       width="154.875"
       patternUnits="userSpaceOnUse">
      <path
         id="path3243-4-8"
         style="color:#000000;fill:#333333;stroke:#333333;stroke-width:3.43219995"
         d="m 73.47948,1.7333554 c -1.5973,0.10936 -3.15,0.35671 -4.7194,0.53629 h -0.1063 l -3.7538,20.4859996 c -6.119,1.3934 -11.875,3.7582 -17.054,6.9717 l -16.85,-12.12 c -4.5522,3.5341 -8.6946,7.6559 -12.334,12.12 l 11.691,17.054 c -3.5496,5.4246 -6.2191,11.619 -7.7225,18.126 -1.8e-4,0.031 -1.8e-4,0.10198 0,0.10702 l -20.379,3.2177 c -0.3725,3.0431 -0.53624,6.1881 -0.53624,9.3313 0,2.5718 0.071,5.1092 0.32165,7.6152 l 20.379,3.6467 c 1.4493,7.0769 4.2026,13.686005 8.0441,19.521005 l -12.12,16.625 c 3.4711,4.3092 7.4784,8.2326 11.798,11.691 l 17.161,-11.798 c 5.9977,3.826 12.693,6.5088 19.95,7.8298 l 3.2176,20.272 c 2.2866,0.20798 4.6316,0.2145 6.9719,0.2145 3.3039,0 6.46,-0.12522 9.6531,-0.53628 l 3.8614,-20.701 c 6.8901,-1.7147 13.363,-4.6894 18.984,-8.6878 l 16.517,12.013 c 4.2835,-3.6443 8.2005,-7.8332 11.584,-12.335 l -12.013,-17.376 c 3.2534,-5.618505 5.5073,-11.818005 6.6498,-18.448005 l 20.272,-3.2177 c 0.17838,-2.1154 0.21297,-4.167 0.21297,-6.3282 0,-3.7556 -0.43675,-7.4379 -0.96556,-11.047 l -20.593,-3.754 c -1.6138,-5.9591 -4.2617,-11.519 -7.615,-16.518 l 12.12,-16.625 c -3.7569,-4.5944 -8.0424,-8.8386 -12.763,-12.442 l -17.483,12.013 c -5.0248,-2.9718 -10.432,-5.2519 -16.303,-6.5427 L 86.3396,2.2688854 c -2.9286,-0.34452 -5.8815,-0.53628 -8.9021,-0.53628 -0.81656,0 -1.6567,-0.024 -2.4672,0 -0.39495,0.0126 -0.78593,-0.024 -1.1796,0 -0.1063,0.007 -0.21621,-0.007 -0.32269,0 z m 2.7888,52.1269996 c 0.39207,-0.0213 0.78323,0 1.18,0 12.696,0 23.06,10.364 23.06,23.06 0,12.696 -10.364,22.953 -23.06,22.953 -12.696,0 -22.953,-10.257 -22.953,-22.953 0,-12.299 9.6261,-22.444 21.773,-23.06 z" />
    </pattern>
    <linearGradient
       x1="-77.781746"
       y1="321.21378"
       x2="212.13203"
       y2="321.21378"
       id="linearGradient4608"
       xlink:href="#linearGradient4602"
       gradientUnits="userSpaceOnUse" />
    <linearGradient
       x1="117.75821"
       y1="551.18378"
       x2="117.75821"
       y2="618.52155"
       id="linearGradient3077"
       xlink:href="#linearGradient3071"
       gradientUnits="userSpaceOnUse" />
    <linearGradient
       x1="348.8876"
       y1="493.7627"
       x2="348.88763"
       y2="625.37994"
       id="linearGradient3089"
       xlink:href="#linearGradient3083"
       gradientUnits="userSpaceOnUse" />
    <linearGradient
       x1="348.8876"
       y1="493.7627"
       x2="348.88763"
       y2="629.62256"
       id="linearGradient3097"
       xlink:href="#linearGradient5492"
       gradientUnits="userSpaceOnUse" />
    <linearGradient
       x1="348.8876"
       y1="493.7627"
       x2="348.88763"
       y2="629.62256"
       id="linearGradient3097-1"
       xlink:href="#linearGradient3083-7"
       gradientUnits="userSpaceOnUse" />
    <linearGradient
       id="linearGradient3083-7">
      <stop
         id="stop3085-4"
         style="stop-color:#ffaa00;stop-opacity:1"
         offset="0" />
      <stop
         id="stop3093-0"
         style="stop-color:#ffaa00;stop-opacity:1"
         offset="0.33024693" />
      <stop
         id="stop3091-9"
         style="stop-color:#000000;stop-opacity:1"
         offset="0.33024693" />
      <stop
         id="stop3087-4"
         style="stop-color:#000000;stop-opacity:1"
         offset="1" />
    </linearGradient>
    <linearGradient
       x1="348.8876"
       y1="493.7627"
       x2="348.88763"
       y2="629.62256"
       id="linearGradient3130"
       xlink:href="#linearGradient3083-7"
       gradientUnits="userSpaceOnUse" />
    <linearGradient
       id="linearGradient3132">
      <stop
         id="stop3134"
         style="stop-color:#ffaa00;stop-opacity:1"
         offset="0" />
      <stop
         id="stop3136"
         style="stop-color:#ffaa00;stop-opacity:1"
         offset="0.33024693" />
      <stop
         id="stop3138"
         style="stop-color:#000000;stop-opacity:1"
         offset="0.33024693" />
      <stop
         id="stop3140"
         style="stop-color:#000000;stop-opacity:1"
         offset="1" />
    </linearGradient>
    <linearGradient
       x1="348.8876"
       y1="493.7627"
       x2="348.88763"
       y2="629.62256"
       id="linearGradient3145"
       xlink:href="#linearGradient3083-7"
       gradientUnits="userSpaceOnUse"
       gradientTransform="translate(94.468306,-132.29162)" />
    <linearGradient
       x1="348.8876"
       y1="493.7627"
       x2="348.88763"
       y2="629.62256"
       id="linearGradient3097-17"
       xlink:href="#linearGradient3083-4"
       gradientUnits="userSpaceOnUse" />
    <linearGradient
       id="linearGradient3083-4">
      <stop
         id="stop3085-0"
         style="stop-color:#f7941d;stop-opacity:1"
         offset="0" />
      <stop
         id="stop3093-9"
         style="stop-color:#f7941d;stop-opacity:1"
         offset="0.33024693" />
      <stop
         id="stop3091-4"
         style="stop-color:#000000;stop-opacity:1"
         offset="0.33024693" />
      <stop
         id="stop3087-8"
         style="stop-color:#000000;stop-opacity:1"
         offset="1" />
    </linearGradient>
    <linearGradient
       x1="348.8876"
       y1="493.7627"
       x2="348.88763"
       y2="629.62256"
       id="linearGradient3086"
       xlink:href="#linearGradient3083-4"
       gradientUnits="userSpaceOnUse" />
    <linearGradient
       id="linearGradient3088">
      <stop
         id="stop3090"
         style="stop-color:#ffaa00;stop-opacity:1"
         offset="0" />
      <stop
         id="stop3092"
         style="stop-color:#ffaa00;stop-opacity:1"
         offset="0.33024693" />
      <stop
         id="stop3094"
         style="stop-color:#000000;stop-opacity:1"
         offset="0.33024693" />
      <stop
         id="stop3096"
         style="stop-color:#000000;stop-opacity:1"
         offset="1" />
    </linearGradient>
    <linearGradient
       x1="348.8876"
       y1="493.7627"
       x2="348.88763"
       y2="629.62256"
       id="linearGradient3101"
       xlink:href="#linearGradient3083-4"
       gradientUnits="userSpaceOnUse"
       gradientTransform="translate(540.44512,-167.45037)" />
    <linearGradient
       x1="348.8876"
       y1="493.7627"
       x2="348.88763"
       y2="629.62256"
       id="linearGradient3101-5"
       xlink:href="#linearGradient3083-4-5"
       gradientUnits="userSpaceOnUse"
       gradientTransform="translate(562.80133,-171.15896)" />
    <linearGradient
       id="linearGradient3083-4-5">
      <stop
         id="stop3085-0-1"
         style="stop-color:#e4701e;stop-opacity:1"
         offset="0" />
      <stop
         id="stop3093-9-7"
         style="stop-color:#e4701e;stop-opacity:1"
         offset="0.33024693" />
      <stop
         id="stop3091-4-1"
         style="stop-color:#000000;stop-opacity:1"
         offset="0.33024693" />
      <stop
         id="stop3087-8-1"
         style="stop-color:#000000;stop-opacity:1"
         offset="1" />
    </linearGradient>
    <linearGradient
       x1="348.8876"
       y1="493.7627"
       x2="348.88763"
       y2="629.62256"
       id="linearGradient3156"
       xlink:href="#linearGradient3083-4-5"
       gradientUnits="userSpaceOnUse"
       gradientTransform="translate(562.80133,-171.15896)" />
    <linearGradient
       id="linearGradient3158">
      <stop
         id="stop3160"
         style="stop-color:#f29f1d;stop-opacity:1"
         offset="0" />
      <stop
         id="stop3162"
         style="stop-color:#f29f1d;stop-opacity:1"
         offset="0.33024693" />
      <stop
         id="stop3164"
         style="stop-color:#000000;stop-opacity:1"
         offset="0.33024693" />
      <stop
         id="stop3166"
         style="stop-color:#000000;stop-opacity:1"
         offset="1" />
    </linearGradient>
    <linearGradient
       x1="348.8876"
       y1="493.7627"
       x2="348.88763"
       y2="629.62256"
       id="linearGradient3168"
       xlink:href="#linearGradient3083-4-5"
       gradientUnits="userSpaceOnUse"
       gradientTransform="translate(562.80133,-171.15896)" />
    <linearGradient
       id="linearGradient3170">
      <stop
         id="stop3172"
         style="stop-color:#f29f1d;stop-opacity:1"
         offset="0" />
      <stop
         id="stop3174"
         style="stop-color:#f29f1d;stop-opacity:1"
         offset="0.33024693" />
      <stop
         id="stop3176"
         style="stop-color:#000000;stop-opacity:1"
         offset="0.33024693" />
      <stop
         id="stop3178"
         style="stop-color:#000000;stop-opacity:1"
         offset="1" />
    </linearGradient>
    <linearGradient
       x1="348.8876"
       y1="493.7627"
       x2="348.88763"
       y2="629.62256"
       id="linearGradient3183"
       xlink:href="#linearGradient3083-4-5"
       gradientUnits="userSpaceOnUse"
       gradientTransform="translate(-31.991111,-176.76974)" />
    <linearGradient
       x1="117.75971"
       y1="547.04767"
       x2="117.75971"
       y2="630.69165"
       id="linearGradient5508"
       xlink:href="#linearGradient5502"
       gradientUnits="userSpaceOnUse" />
    <linearGradient
       x1="331.38339"
       y1="357.09494"
       x2="331.38339"
       y2="462.04718"
       id="linearGradient5524"
       xlink:href="#linearGradient5518"
       gradientUnits="userSpaceOnUse"
       gradientTransform="translate(5.5838522,472.8693)" />
    <linearGradient
       x1="331.38339"
       y1="357.09494"
       x2="331.38339"
       y2="462.04718"
       id="linearGradient5534"
       xlink:href="#linearGradient5518"
       gradientUnits="userSpaceOnUse"
       gradientTransform="translate(36.873518,220.80526)" />
    <linearGradient
       x1="348.8876"
       y1="493.7627"
       x2="348.88763"
       y2="629.62256"
       id="linearGradient3909"
       xlink:href="#linearGradient5492"
       gradientUnits="userSpaceOnUse" />
    <linearGradient
       x1="348.8876"
       y1="493.7627"
       x2="348.88763"
       y2="629.62256"
       id="linearGradient3911"
       xlink:href="#linearGradient5492"
       gradientUnits="userSpaceOnUse" />
    <linearGradient
       x1="348.8876"
       y1="493.7627"
       x2="348.88763"
       y2="629.62256"
       id="linearGradient3913"
       xlink:href="#linearGradient5492"
       gradientUnits="userSpaceOnUse" />
    <linearGradient
       x1="348.8876"
       y1="493.7627"
       x2="348.88763"
       y2="629.62256"
       id="linearGradient3915"
       xlink:href="#linearGradient5492"
       gradientUnits="userSpaceOnUse" />
    <linearGradient
       x1="348.8876"
       y1="493.7627"
       x2="348.88763"
       y2="629.62256"
       id="linearGradient3917"
       xlink:href="#linearGradient5492"
       gradientUnits="userSpaceOnUse" />
    <linearGradient
       x1="348.8876"
       y1="493.7627"
       x2="348.88763"
       y2="629.62256"
       id="linearGradient3919"
       xlink:href="#linearGradient5492"
       gradientUnits="userSpaceOnUse" />
    <linearGradient
       x1="348.8876"
       y1="493.7627"
       x2="348.88763"
       y2="629.62256"
       id="linearGradient3921"
       xlink:href="#linearGradient5492"
       gradientUnits="userSpaceOnUse" />
    <linearGradient
       x1="117.75971"
       y1="547.04767"
       x2="117.75971"
       y2="630.69165"
       id="linearGradient3923"
       xlink:href="#linearGradient5502"
       gradientUnits="userSpaceOnUse" />
    <linearGradient
       x1="331.38339"
       y1="357.09494"
       x2="331.38339"
       y2="462.04718"
       id="linearGradient3925"
       xlink:href="#linearGradient5518"
       gradientUnits="userSpaceOnUse"
       gradientTransform="translate(36.873518,220.80526)" />
  </defs>
  <metadata
     id="metadata7">
    <rdf:RDF>
      <cc:Work
         rdf:about="">
        <dc:format>image/svg+xml</dc:format>
        <dc:type
           rdf:resource="http://purl.org/dc/dcmitype/StillImage" />
        <dc:title></dc:title>
      </cc:Work>
    </rdf:RDF>
  </metadata>
  <g
     transform="translate(-326.89493,-505.15795)"
     id="layer1"
     style="display:none">
    <g
       id="text2985-8"
       style="font-size:40px;font-style:normal;font-weight:normal;line-height:125%;letter-spacing:0px;word-spacing:0px;fill:url(#linearGradient3097);fill-opacity:1;stroke:none;font-family:Sans">
      <path
         d="m 146.87931,573.03524 c -1.96503,2.46598 -4.29899,4.37395 -7.00191,5.72392 -2.70301,1.34999 -5.64897,2.03399 -8.83789,2.05198 -5.99695,-0.105 -11.03088,-2.48696 -15.1018,-7.14591 -4.07097,-4.65892 -6.18894,-10.96484 -6.35392,-18.91776 0.16498,-7.87186 2.28296,-14.08777 6.35392,-18.64776 4.07092,-4.55989 9.10485,-6.88785 15.1018,-6.98391 3.18892,0.0271 6.13488,0.72905 8.83789,2.10598 2.70292,1.37704 5.03688,3.26701 7.00191,5.66992 l 6.76791,-6.19192 c -2.69702,-3.47389 -5.97897,-6.13786 -9.84587,-7.9919 -3.867,-1.85391 -8.12094,-2.7899 -12.76184,-2.80796 -8.58591,0.12007 -15.78581,3.26402 -21.59972,9.43188 -5.81393,6.16797 -8.83789,14.63985 -9.07188,25.41567 0.23399,10.79389 3.25795,19.33777 9.07188,25.63167 5.81391,6.29392 13.01381,9.50988 21.59972,9.64788 4.64691,-0.024 8.92485,-0.98399 12.83384,-2.87997 3.9089,-1.89597 7.21485,-4.58393 9.91787,-8.06389 z"
         id="path3129"
         style="opacity:0;fill:none" />
      <path
         d="m 212.91925,588.58704 9.21588,0 0,-67.24714 -9.21588,0 0,12.52784 c -2.62803,-5.68487 -6.11998,-9.47081 -10.47587,-11.35785 -4.35599,-1.88691 -8.49593,-2.7569 -12.41984,-2.60997 -8.18092,0.10807 -14.93083,3.24002 -20.24974,9.39588 -5.31894,6.15597 -8.0729,14.68786 -8.26189,25.59567 0.18899,10.85088 2.94295,19.38876 8.26189,25.61367 5.31891,6.22492 12.06882,9.39888 20.24974,9.52188 4.29291,0.084 8.52285,-0.94799 12.68984,-3.09596 4.16689,-2.14798 7.56884,-5.91592 10.20587,-11.30386 z m 0,-33.83957 c -0.17406,8.26192 -2.31003,14.63383 -6.40792,19.11576 -4.098,4.48195 -9.11393,6.74992 -15.04781,6.80391 -5.84095,-0.13499 -10.71889,-2.56496 -14.63381,-7.28991 -3.91497,-4.72492 -5.94894,-10.93483 -6.10192,-18.62976 0.15298,-7.80286 2.18695,-13.97677 6.10192,-18.52176 3.91492,-4.54489 8.79286,-6.86685 14.63381,-6.96591 5.49289,0.0271 10.38282,2.20503 14.66981,6.53391 4.28689,4.329 6.54886,10.64691 6.78592,18.95376 z"
         id="path3131"
         style="font-size:144px;letter-spacing:-2px;fill:url(#linearGradient3909);font-family:Sofia Pro Light Condensed;-inkscape-font-specification:Sofia Pro Light Condensed" />
      <path
         d="m 247.99074,575.7712 c 2.58594,5.50794 5.9819,9.28789 10.18787,11.33986 4.20591,2.05197 8.39385,3.02395 12.56384,2.91596 8.24384,-0.117 15.01175,-3.26696 20.30373,-9.44988 5.29187,-6.18291 8.02783,-14.69679 8.2079,-25.54167 -0.18007,-10.85082 -2.91603,-19.3887 -8.2079,-25.61367 -5.29199,-6.22486 -12.05989,-9.39881 -20.30373,-9.52188 -3.855,-0.12593 -7.95294,0.77406 -12.29385,2.69997 -4.34097,1.92604 -7.82692,5.63398 -10.45786,11.12385 l 0,-12.38384 -9.21588,0 0,99.93472 9.21588,0 z m 0,-20.73573 c 0.21298,-8.31886 2.41495,-14.68477 6.60591,-19.09776 4.19092,-4.41288 9.09285,-6.63885 14.70581,-6.67791 5.89788,0.11106 10.76981,2.48103 14.61581,7.10991 3.84589,4.62898 5.83787,10.8509 5.97593,18.66576 -0.13806,7.75192 -2.13003,13.95584 -5.97593,18.61176 -3.846,4.65595 -8.71793,7.04391 -14.61581,7.16391 -5.73896,-0.039 -10.67689,-2.26496 -14.81381,-6.67792 -4.13696,-4.41292 -6.30293,-10.77884 -6.49791,-19.09775 z"
         id="path3133"
         style="font-size:144px;letter-spacing:-2px;fill:url(#linearGradient3911);font-family:Sofia Pro Light Condensed;-inkscape-font-specification:Sofia Pro Light Condensed" />
      <path
         d="m 349.58938,538.33168 c -0.78004,-6.81585 -3.18001,-11.61579 -7.19991,-14.39981 -4.01999,-2.7839 -8.43593,-4.12788 -13.24783,-4.03195 -5.98795,0.11407 -10.75188,1.93804 -14.29182,5.47193 -3.53996,3.53401 -5.35194,8.09395 -5.43593,13.67982 0.105,5.33998 1.58698,9.45593 4.44595,12.34785 2.85895,2.89199 6.4649,4.91996 10.81786,6.08392 l 9.79187,2.87996 c 3.24592,1.09801 5.46589,2.64599 6.65991,4.64394 1.19395,1.99799 1.75794,3.90597 1.69198,5.72393 -0.099,3.32397 -1.30502,5.85593 -3.61795,7.5959 -2.31301,1.73999 -5.57096,2.61597 -9.77387,2.62796 -3.46799,-0.021 -6.35995,-0.95098 -8.6759,-2.78996 -2.31598,-1.83897 -3.55197,-4.46093 -3.70795,-7.8659 l -9.21588,0 c 0.26999,6.30293 2.50196,11.15687 6.69591,14.56181 4.19394,3.40496 9.16187,5.12693 14.90382,5.16594 6.58488,-0.036 11.9188,-1.69198 16.00179,-4.96794 4.0829,-3.27595 6.28487,-7.95589 6.60591,-14.03982 0.11095,-3.68693 -0.93903,-7.40088 -3.14995,-11.14186 -2.21102,-3.74092 -6.24896,-6.55488 -12.11385,-8.44189 l -9.64788,-2.73596 c -2.36999,-0.70495 -4.36196,-1.85093 -5.97592,-3.43796 -1.614,-1.58693 -2.45399,-3.7049 -2.51997,-6.35391 0.024,-2.93391 0.94798,-5.30988 2.77197,-7.12791 1.82395,-1.81792 4.40392,-2.75391 7.7399,-2.80797 2.54394,-0.0959 4.9079,0.49206 7.09191,1.76398 2.18393,1.27204 3.61191,3.80401 4.28394,7.5959 z"
         id="path3135"
         style="font-size:144px;letter-spacing:-2px;fill:url(#linearGradient3913);font-family:Sofia Pro Light Condensed;-inkscape-font-specification:Sofia Pro Light Condensed" />
      <path
         d="m 368.7578,588.58704 9.21588,0 0,-58.89525 14.25582,0 0,-8.35189 -14.25582,0 0,-23.4717 -9.21588,0 0,23.4717 -11.23186,0 0,8.35189 11.23186,0 z"
         id="path3137"
         style="font-size:144px;letter-spacing:-2px;fill:url(#linearGradient3915);font-family:Sofia Pro Light Condensed;-inkscape-font-specification:Sofia Pro Light Condensed" />
      <path
         d="m 428.72701,590.02702 c 8.58585,-0.138 15.78575,-3.35395 21.59973,-9.64788 5.81386,-6.29391 8.83782,-14.83779 9.07188,-25.63167 -0.23406,-10.77582 -3.25802,-19.2477 -9.07188,-25.41567 -5.81398,-6.16786 -13.01388,-9.31181 -21.59973,-9.43188 -8.58591,0.12007 -15.78581,3.26402 -21.59972,9.43188 -5.81393,6.16797 -8.83789,14.63985 -9.07188,25.41567 0.23399,10.79389 3.25795,19.33777 9.07188,25.63167 5.81391,6.29392 13.01381,9.50988 21.59972,9.64788 z m 0,-9.07189 c -5.99695,-0.11099 -11.03088,-2.51695 -15.1018,-7.21791 -4.07097,-4.70092 -6.18894,-11.03083 -6.35392,-18.98975 0.16498,-7.87785 2.28296,-14.11777 6.35392,-18.71976 4.07092,-4.60188 9.10485,-6.95385 15.1018,-7.05591 5.99688,0.10206 11.03081,2.45403 15.10181,7.05591 4.07089,4.60199 6.18886,10.84191 6.35392,18.71976 -0.16506,7.95892 -2.28303,14.28884 -6.35392,18.98976 -4.071,4.70095 -9.10493,7.10691 -15.10181,7.2179 z"
         id="path3139"
         style="font-size:144px;letter-spacing:-2px;fill:url(#linearGradient3917);font-family:Sofia Pro Light Condensed;-inkscape-font-specification:Sofia Pro Light Condensed" />
      <path
         d="m 525.36667,550.42753 c -0.0871,-10.28082 -2.28903,-17.94272 -6.60591,-22.98571 -4.317,-5.04287 -10.22692,-7.55683 -17.72978,-7.5419 -4.38597,-0.003 -8.32192,1.04706 -11.80784,3.14996 -3.48598,2.10304 -6.12595,5.27699 -7.9199,9.52188 l 0,-11.23186 -9.21588,0 0,67.24714 9.21588,0 0,-37.15153 c 0.12298,-6.53087 1.64096,-11.8288 4.55394,-15.89379 2.91294,-4.0649 7.34688,-6.15887 13.30183,-6.28192 5.24389,-0.0599 9.37183,1.71604 12.38384,5.32793 3.01191,3.612 4.54789,9.41992 4.60794,17.42378 l 0,36.57553 9.21588,0 z"
         id="path3141"
         style="font-size:144px;letter-spacing:-2px;fill:url(#linearGradient3919);font-family:Sofia Pro Light Condensed;-inkscape-font-specification:Sofia Pro Light Condensed" />
      <path
         d="m 586.74702,568.85929 c -1.86603,4.02596 -4.46999,7.02592 -7.8119,8.99988 -3.342,1.97398 -7.02595,2.95797 -11.05186,2.95197 -5.42396,-0.06 -10.01989,-1.91997 -13.78782,-5.57993 -3.76797,-3.65994 -6.13194,-8.75987 -7.09191,-15.2998 l 50.25536,0 c 0.0689,-0.74697 0.11093,-1.59295 0.12599,-2.53797 0.0149,-0.94496 0.0209,-1.82695 0.018,-2.64597 -0.17406,-10.77582 -2.99402,-19.2477 -8.45989,-25.41567 -5.46598,-6.16786 -12.53388,-9.31181 -21.20372,-9.43188 -8.70592,0.12007 -15.91782,3.26402 -21.63573,9.43188 -5.71794,6.16797 -8.68189,14.63985 -8.89188,25.41567 0.20999,10.79389 3.17395,19.33777 8.89189,25.63167 5.7179,6.29392 12.9298,9.50988 21.63572,9.64788 5.94288,-0.009 11.3728,-1.50298 16.28979,-4.48195 4.91688,-2.97895 8.65482,-7.38889 11.21385,-13.22982 z M 567.73927,529.1158 c 5.58888,0.0511 10.25082,2.10903 13.98582,6.17392 3.7349,4.065 5.84087,9.83092 6.31791,17.29778 l -41.18346,0 c 0.68097,-7.59286 2.91894,-13.39478 6.71391,-17.40578 3.79493,-4.01089 8.51686,-6.03286 14.16582,-6.06592 z"
         id="path3143"
         style="font-size:144px;letter-spacing:-2px;fill:url(#linearGradient3921);font-family:Sofia Pro Light Condensed;-inkscape-font-specification:Sofia Pro Light Condensed" />
    </g>
    <g
       id="text3066"
       style="font-size:40px;font-style:normal;font-weight:normal;line-height:125%;letter-spacing:0px;word-spacing:0px;fill:#000000;fill-opacity:1;stroke:none;font-family:Sans">
      <path
         d="m 185.93784,665.46936 13.79982,-42.95945 13.79982,42.95945 z m 29.75961,7.1999 7.07991,21.47973 8.27989,0 -27.11965,-82.67894 -8.39989,0 -27.35965,82.67894 8.3999,0 7.07991,-21.47973 z"
         id="path3108"
         style="font-size:120px;fill:#000000;font-family:Sofia Pro Light Condensed;-inkscape-font-specification:Sofia Pro Light Condensed" />
      <path
         d="m 276.2769,694.14899 7.6799,0 0,-56.03928 -7.6799,0 0,31.0796 c -0.0851,5.44745 -1.35503,9.88238 -3.80996,13.30483 -2.455,3.42246 -6.30495,5.18744 -11.54985,5.29493 -4.28747,0.0225 -7.59242,-1.40248 -9.91487,-4.27495 -2.32249,-2.87245 -3.49747,-7.32739 -3.52495,-13.36482 l 0,-32.03959 -7.6799,0 0,33.35957 c 0.07,7.81991 1.87996,13.74983 5.42993,17.78977 3.54993,4.03995 8.41987,6.06992 14.60981,6.08992 3.70742,-0.003 7.00237,-0.83749 9.88487,-2.50497 2.88242,-1.66747 5.06739,-4.15244 6.55492,-7.4549 z"
         id="path3110"
         style="font-size:120px;fill:#000000;font-family:Sofia Pro Light Condensed;-inkscape-font-specification:Sofia Pro Light Condensed" />
      <path
         d="m 303.29981,694.14899 7.6799,0 0,-49.07937 11.87985,0 0,-6.95991 -11.87985,0 0,-19.55975 -7.6799,0 0,19.55975 -9.35988,0 0,6.95991 9.35988,0 z"
         id="path3112"
         style="font-size:120px;fill:#000000;font-family:Sofia Pro Light Condensed;-inkscape-font-specification:Sofia Pro Light Condensed" />
      <path
         d="m 354.94082,695.34897 c 7.15487,-0.115 13.15479,-2.79496 17.99977,-8.0399 4.84488,-5.24492 7.36485,-12.36482 7.5599,-21.35972 -0.19505,-8.97985 -2.71501,-16.03975 -7.5599,-21.17973 -4.84498,-5.13988 -10.8449,-7.75984 -17.99977,-7.8599 -7.15493,0.10006 -13.15484,2.72002 -17.99977,7.8599 -4.84494,5.13998 -7.36491,12.19988 -7.5599,21.17973 0.19499,8.9949 2.71496,16.1148 7.5599,21.35972 4.84492,5.24494 10.84484,7.9249 17.99977,8.0399 z m 0,-7.5599 c -4.99746,-0.0925 -9.1924,-2.09747 -12.58484,-6.01493 -3.39247,-3.91743 -5.15744,-9.19236 -5.29493,-15.82479 0.13749,-6.56488 1.90246,-11.76481 5.29493,-15.5998 3.39244,-3.8349 7.58738,-5.79488 12.58484,-5.87992 4.9974,0.085 9.19234,2.04502 12.58484,5.87992 3.39241,3.83499 5.15739,9.03492 5.29493,15.5998 -0.13754,6.63244 -1.90252,11.90736 -5.29493,15.8248 -3.3925,3.91745 -7.58744,5.92243 -12.58484,6.01492 z"
         id="path3114"
         style="font-size:120px;fill:#000000;font-family:Sofia Pro Light Condensed;-inkscape-font-specification:Sofia Pro Light Condensed" />
      <path
         d="m 450.10037,644.70962 c 4.20488,0.0251 7.37483,1.47503 9.50987,4.34995 2.1349,2.875 3.20489,7.02494 3.20997,12.44984 l 0,32.63958 7.6799,0 0,-32.63958 c 0.005,-7.84986 -1.59507,-13.89978 -4.79994,-18.14977 -3.20504,-4.24989 -8.04497,-6.39986 -14.51981,-6.44992 -3.45003,-0.0899 -6.89998,0.81005 -10.34988,2.69997 -3.45,1.89002 -5.99997,5.30998 -7.64989,10.25987 -1.33253,-4.3724 -3.4675,-7.62735 -6.40492,-9.76488 -2.93751,-2.13742 -6.60245,-3.2024 -10.99486,-3.19496 -3.42998,-0.01 -6.52994,0.85005 -9.29988,2.57997 -2.76998,1.73003 -4.78996,4.38999 -6.05992,7.9799 l 0,-9.35988 -7.6799,0 0,56.03928 7.6799,0 0,-31.3196 c 0.0775,-5.1124 1.24246,-9.37734 3.49495,-12.79484 2.25245,-3.41741 5.8474,-5.19238 10.78486,-5.32493 4.20992,0.0351 7.42987,1.49503 9.65988,4.37995 2.22993,2.885 3.40991,6.98494 3.53995,12.29984 l 0,32.75958 7.67991,0 0,-31.3196 c 0.0799,-5.1649 1.26993,-9.44484 3.56995,-12.83983 2.29991,-3.39491 5.94986,-5.15489 10.94986,-5.27994 z"
         id="path3116"
         style="font-size:120px;fill:#000000;font-family:Sofia Pro Light Condensed;-inkscape-font-specification:Sofia Pro Light Condensed" />
      <path
         d="m 525.1531,694.14899 7.6799,0 0,-56.03928 -7.6799,0 0,10.43986 c -2.19002,-4.73738 -5.09998,-7.89234 -8.72989,-9.46488 -3.62999,-1.57242 -7.07994,-2.29741 -10.34987,-2.17497 -6.81743,0.0901 -12.44236,2.70002 -16.87478,7.8299 -4.43245,5.12998 -6.72742,12.23988 -6.88491,21.32973 0.15749,9.0424 2.45246,16.1573 6.88491,21.34472 4.43243,5.18744 10.05735,7.8324 16.87478,7.9349 3.57743,0.07 7.10238,-0.78999 10.57487,-2.57997 3.47241,-1.78997 6.30737,-4.92993 8.50489,-9.41987 z m 0,-28.19964 c -0.14505,6.88493 -1.92502,12.19486 -5.33994,15.92979 -3.41499,3.73497 -7.59493,5.62494 -12.53983,5.66993 -4.86747,-0.11249 -8.93241,-2.13746 -12.19485,-6.07492 -3.26247,-3.93743 -4.95745,-9.11236 -5.08493,-15.5248 0.12749,-6.50238 1.82246,-11.64731 5.08493,-15.4348 3.26244,-3.78741 7.32738,-5.72238 12.19485,-5.80493 4.5774,0.0226 8.65235,1.83753 12.22484,5.44493 3.57241,3.6075 5.45738,8.87242 5.65493,15.7948 z"
         id="path3118"
         style="font-size:120px;fill:#000000;font-family:Sofia Pro Light Condensed;-inkscape-font-specification:Sofia Pro Light Condensed" />
      <path
         d="m 552.20606,694.14899 7.6799,0 0,-49.07937 11.87985,0 0,-6.95991 -11.87985,0 0,-19.55975 -7.6799,0 0,19.55975 -9.35988,0 0,6.95991 9.35988,0 z"
         id="path3120"
         style="font-size:120px;fill:#000000;font-family:Sofia Pro Light Condensed;-inkscape-font-specification:Sofia Pro Light Condensed" />
      <path
         d="m 579.60738,619.74994 c 0.045,1.71506 0.61499,3.11504 1.70998,4.19995 1.09498,1.08506 2.44496,1.64505 4.04995,1.67998 1.70996,-0.0349 3.08995,-0.59492 4.13994,-1.67998 1.04997,-1.08492 1.58997,-2.4849 1.61999,-4.19995 -0.03,-1.7099 -0.57002,-3.08988 -1.61999,-4.13994 -1.05,-1.04991 -2.42998,-1.5899 -4.13994,-1.61998 -1.60499,0.0301 -2.95497,0.57007 -4.04995,1.61998 -1.09499,1.05006 -1.66499,2.43004 -1.70998,4.13994 z m 2.03998,18.35977 0,56.03928 7.6799,0 0,-56.03928 z"
         id="path3122"
         style="font-size:120px;fill:#000000;font-family:Sofia Pro Light Condensed;-inkscape-font-specification:Sofia Pro Light Condensed" />
      <path
         d="m 627.0502,695.34897 c 7.15487,-0.115 13.15478,-2.79496 17.99976,-8.0399 4.84489,-5.24492 7.36485,-12.36482 7.55991,-21.35972 -0.19505,-8.97985 -2.71502,-16.03975 -7.55991,-21.17973 -4.84498,-5.13988 -10.84489,-7.75984 -17.99976,-7.8599 -7.15493,0.10006 -13.15485,2.72002 -17.99977,7.8599 -4.84495,5.13998 -7.36491,12.19988 -7.5599,21.17973 0.19499,8.9949 2.71495,16.1148 7.5599,21.35972 4.84492,5.24494 10.84484,7.9249 17.99977,8.0399 z m 0,-7.5599 c -4.99746,-0.0925 -9.19241,-2.09747 -12.58484,-6.01493 -3.39247,-3.91743 -5.15745,-9.19236 -5.29493,-15.82479 0.13748,-6.56488 1.90246,-11.76481 5.29493,-15.5998 3.39244,-3.8349 7.58738,-5.79488 12.58484,-5.87992 4.9974,0.085 9.19234,2.04502 12.58483,5.87992 3.39241,3.83499 5.15739,9.03492 5.29494,15.5998 -0.13755,6.63244 -1.90253,11.90736 -5.29494,15.8248 -3.3925,3.91745 -7.58744,5.92243 -12.58483,6.01492 z"
         id="path3124"
         style="font-size:120px;fill:#000000;font-family:Sofia Pro Light Condensed;-inkscape-font-specification:Sofia Pro Light Condensed" />
      <path
         d="m 709.24991,662.3494 c -0.0725,-8.56735 -1.90752,-14.95227 -5.50493,-19.15476 -3.59749,-4.20239 -8.52243,-6.29736 -14.77481,-6.28492 -3.65498,-0.002 -6.93493,0.87255 -9.83987,2.62497 -2.90498,1.75253 -5.10495,4.39749 -6.59992,7.9349 l 0,-9.35988 -7.6799,0 0,56.03928 7.6799,0 0,-30.9596 c 0.10249,-5.4424 1.36747,-9.85734 3.79496,-13.24484 2.42744,-3.38741 6.12239,-5.13238 11.08485,-5.23493 4.36991,-0.0499 7.80987,1.43003 10.31987,4.43995 2.50992,3.01 3.7899,7.84993 3.83995,14.51981 l 0,30.47961 7.6799,0 z"
         id="path3126"
         style="font-size:120px;fill:#000000;font-family:Sofia Pro Light Condensed;-inkscape-font-specification:Sofia Pro Light Condensed" />
    </g>
    <path
       d="m 111.53859,621.09651 c -4.42521,-1.05141 -19.091883,-7.77197 -19.091883,-8.74828 0,-0.48228 0.565506,-2.84867 1.256682,-5.25866 1.161587,-4.05022 0.736105,-4.89296 -5.62282,-11.13701 -6.436261,-6.31998 -7.234583,-6.69844 -12.390743,-5.87393 l -5.511244,0.88128 -3.715179,-8.56648 c -4.850136,-11.18348 -4.757641,-14.22549 0.527461,-17.34748 4.008326,-2.36778 4.242641,-3.00414 4.242641,-11.52232 0,-8.40378 -0.288151,-9.22132 -4.242641,-12.03717 -2.333452,-1.66156 -4.242641,-3.94625 -4.242641,-5.07709 0,-1.13084 1.895676,-6.2369 4.212612,-11.34679 l 4.212611,-9.29072 5.662205,0.95662 c 5.156756,0.87123 6.23038,0.47249 12.027091,-4.46681 6.028876,-5.13712 6.32256,-5.7259 5.563092,-11.15288 -0.898815,-6.42271 -0.469512,-6.77468 14.714886,-12.06413 l 7.50163,-2.61317 2.89111,4.90007 c 2.7742,4.70193 3.22535,4.90007 11.15675,4.90007 7.7128,0 8.4359,-0.28823 10.81133,-4.30951 2.93106,-4.96189 4.47104,-4.86952 17.76676,1.06574 8.31394,3.71138 8.84523,4.61725 6.86996,11.7137 -0.78479,2.81946 -0.15344,4.21553 3.17168,7.01343 l 4.1515,3.49326 -5.93308,5.26515 -5.93307,5.26514 -7.75456,-5.43208 c -17.98737,-12.60019 -39.80944,-10.66881 -54.90078,4.85904 -24.936223,25.65749 -8.451088,68.97862 27.11034,71.243 11.26285,0.71716 20.25392,-1.77162 28.13613,-7.78824 3.39186,-2.58907 6.51702,-4.70739 6.94481,-4.70739 0.42779,0 3.29568,2.02343 6.37309,4.4965 l 5.5953,4.49651 -3.74964,3.91378 c -3.2496,3.39185 -3.62638,4.68465 -2.82534,9.69412 l 0.92431,5.78033 -8.8633,4.19304 c -11.06227,5.23333 -13.90373,5.26118 -16.80241,0.16469 -2.16384,-3.80448 -2.77222,-4.00582 -11.72449,-3.88015 -9.05442,0.12711 -9.56176,0.32134 -12.35231,4.72875 -1.60054,2.52791 -3.00668,4.52237 -3.12475,4.43215 -0.11807,-0.0902 -1.48747,-0.46646 -3.0431,-0.83608 z"
       id="path4747"
       style="fill:none" />
    <g
       transform="scale(1.0546613,0.94817171)"
       id="text2985-1-2"
       style="font-size:42.18645477px;font-style:normal;font-weight:normal;line-height:125%;letter-spacing:0px;word-spacing:0px;fill:url(#linearGradient5508);fill-opacity:1;stroke:none;font-family:Sans">
      <path
         d="m 138.64172,604.36979 c -2.07244,2.60077 -4.53398,4.61304 -7.38465,6.0368 -2.85075,1.42378 -5.95774,2.14516 -9.32097,2.16414 -6.32475,-0.11073 -11.63385,-2.6229 -15.92729,-7.53652 -4.29349,-4.91358 -6.527234,-11.56418 -6.701233,-19.95182 0.174002,-8.30215 2.407743,-14.85783 6.701233,-19.66708 4.29345,-4.80913 9.60254,-7.26435 15.92729,-7.36565 3.36323,0.0285 6.47022,0.7689 9.32098,2.22109 2.85066,1.45231 5.3122,3.44559 7.38464,5.97985 l 7.13786,-6.53038 c -2.84445,-3.66378 -6.3058,-6.47336 -10.38407,-8.42875 -4.07837,-1.95525 -8.56484,-2.9424 -13.45941,-2.96145 -9.05523,0.12663 -16.64869,3.44244 -22.780392,9.94744 -6.131734,6.50512 -9.320985,15.44009 -9.567764,26.80493 0.246782,11.38389 3.436033,20.39479 9.567764,27.03273 6.131702,6.63795 13.725152,10.0297 22.780392,10.17524 4.90091,-0.0253 9.41269,-1.03777 13.53535,-3.03739 4.12256,-1.99961 7.60922,-4.8345 10.46,-8.50467 z"
         id="path3146"
         style="font-size:151.87123108px;fill:url(#linearGradient3923);font-family:Sofia Pro Light Condensed;-inkscape-font-specification:Sofia Pro Light Condensed" />
    </g>
    <path
       d="m 113.90625,489.93749 c -6.0628,1.40573 -11.90481,3.66974 -17.343747,6.6875 l 2.625,13.46875 c -5.16384,3.41365 -9.81464,7.832 -13.59375,12.96875 l -0.0625,0.125 -13.28125,-3.40625 c -1.68254,2.72939 -3.1612,5.62467 -4.46875,8.65625 -1.13359,2.62826 -2.06961,5.28927 -2.84375,7.96875 l 11.40625,7.5625 c -1.40543,6.75317 -1.47443,13.58724 -0.3125,20.15625 l -11.6875,6.90625 c 1.46709,5.80974 3.70052,11.41162 6.65625,16.625 l 13.53125,-2.6875 c 3.81242,5.62273 8.66731,10.50338 14.53125,14.40625 l -3.34375,13.125 c 2.18139,1.25038 4.448567,2.38659 6.812497,3.40625 3.23169,1.3938 6.50781,2.52251 9.8125,3.375 l 7.78125,-11.59375 c 6.69028,1.10239 13.49673,0.94248 19.9375,-0.4375 l 6.90625,11.59375 c 5.865,-1.65544 11.47765,-4.10013 16.6875,-7.28125 l -2.78125,-13.75 c 2.62247,-1.94709 5.04496,-4.13405 7.28125,-6.5625 l -7,-5.78125 c -12.47595,13.11239 -32.28534,17.74278 -49.875,10.15625 -22.551577,-9.72675 -32.945397,-35.88592 -23.218747,-58.4375 9.72664,-22.5515 35.885817,-32.9455 58.437497,-23.21875 5.73728,2.47453 10.68393,6.0089 14.71875,10.28125 l 6.96875,-5.8125 c -2.36813,-2.6118 -5.00059,-4.98107 -7.9375,-7.09375 l 3.375,-13.3125 c -2.65554,-1.6208 -5.43597,-3.07619 -8.375,-4.34375 -2.9481,-1.27157 -5.927,-2.30487 -8.9375,-3.125 l -7.71875,11.5625 C 132.70128,501.03263 126.7565,500.92264 121,501.78124 l -7.09375,-11.84375 z"
       id="path3243-1-5"
       style="color:#000000;fill:#142395;fill-opacity:1;stroke:#142395;stroke-width:3.27746534;stroke-opacity:1" />
  </g>
  <g
     transform="translate(-326.89493,-505.15795)"
     id="layer2"
     style="display:inline">
    <g
       transform="matrix(1.0546613,0,0,0.94817171,9.00004,-8.9000194)"
       id="text2985-1"
       style="font-size:42.18645477px;font-style:normal;font-weight:normal;line-height:125%;letter-spacing:0px;word-spacing:0px;fill:url(#linearGradient5534);fill-opacity:1;stroke:none;display:inline;font-family:Sans">
      <path
         d="m 389.13897,640.48551 c -2.07243,2.60077 -4.53398,4.61304 -7.38464,6.0368 -2.85076,1.42379 -5.95775,2.14516 -9.32098,2.16414 -6.32475,-0.11073 -11.63384,-2.6229 -15.92729,-7.53651 -4.29349,-4.91359 -6.52723,-11.56419 -6.70123,-19.95183 0.174,-8.30214 2.40774,-14.85783 6.70123,-19.66707 4.29345,-4.80914 9.60254,-7.26435 15.92729,-7.36566 3.36323,0.0285 6.47022,0.7689 9.32098,2.22109 2.85066,1.45231 5.31221,3.44559 7.38464,5.97985 l 7.13786,-6.53038 c -2.84445,-3.66378 -6.3058,-6.47336 -10.38407,-8.42875 -4.07837,-1.95524 -8.56483,-2.94239 -13.45941,-2.96144 -9.05523,0.12662 -16.64869,3.44243 -22.78039,9.94743 -6.13173,6.50512 -9.32098,15.44009 -9.56776,26.80493 0.24678,11.38389 3.43603,20.39479 9.56776,27.03273 6.1317,6.63796 13.72516,10.0297 22.78039,10.17524 4.90091,-0.0253 9.41269,-1.03777 13.53535,-3.03738 4.12256,-1.99961 7.60923,-4.8345 10.46,-8.50468 z"
         id="path3149"
         style="font-size:151.87123108px;fill:url(#linearGradient3925);font-family:Sofia Pro Light Condensed;-inkscape-font-specification:Sofia Pro Light Condensed" />
    </g>
    <path
       d="m 428.43664,519.0337 c -2.9481,-1.27157 -5.92894,-2.321 -8.93944,-3.14113 l -7.72044,11.57559 c -5.89247,-1.09236 -11.82694,-1.20077 -17.58344,-0.34217 l -7.1065,-11.83295 c -6.0628,1.40573 -11.89431,3.66499 -17.33324,6.68275 l 2.63129,13.47503 c -5.16383,3.41365 -9.83341,7.82702 -13.61252,12.96377 l -0.0477,0.10955 -13.28095,-3.39009 c -1.68254,2.72939 -3.17214,5.62282 -4.47969,8.6544 -1.13359,2.62826 -2.07509,5.2818 -2.84923,7.96128 l 11.41948,7.55565 c -1.40543,6.75317 -1.47863,13.59078 -0.3167,20.15979 l -11.6839,6.91109 c 1.46709,5.80974 3.71299,11.39935 6.66872,16.61273 l 13.52608,-2.67416 c 3.81242,5.62273 8.66806,10.51588 14.532,14.41875 l -3.34666,13.1049 c 2.18139,1.25038 4.44103,2.40248 6.80496,3.42214 3.23169,1.3938 6.51529,2.50611 9.81998,3.3586 l 7.78694,-11.57942 c 6.69028,1.10239 13.48972,0.94829 19.93049,-0.43169 l 6.89181,11.57809 c 5.865,-1.65544 11.47483,-4.10602 16.68468,-7.28714 l -2.7795,-13.73391 c 4.97749,-3.69562 9.3025,-8.28532 12.81139,-13.66644 l 13.18715,3.38207 c 1.15211,-2.04542 2.21604,-4.15917 3.16661,-6.36319 1.55506,-3.60554 2.74553,-7.27797 3.62749,-10.97025 l -11.71252,-7.7796 c 0.83845,-5.83522 0.61621,-11.71453 -0.43369,-17.36589 l 11.81319,-6.98522 c -1.6104,-6.17626 -4.10029,-12.09583 -7.39085,-17.57371 l -13.85509,2.75974 c -3.28226,-4.50612 -7.18008,-8.57416 -11.84011,-11.92637 l 3.40191,-13.30833 c -2.65554,-1.6208 -5.45344,-3.0667 -8.39247,-4.33426 z m -8.75079,20.28908 c 22.55149,9.72664 32.9705,35.89264 23.24395,58.44403 -9.72674,22.55168 -35.9082,32.93147 -58.45979,23.20483 -22.55157,-9.72675 -32.94319,-35.88081 -23.21654,-58.43239 9.72664,-22.5515 35.8807,-32.94322 58.43238,-23.21647 z"
       id="path3243-1"
       style="color:#000000;fill:#142395;fill-opacity:1;stroke:#142395;stroke-width:3.27746534;stroke-opacity:1;display:inline" >
	  <animateTransform attributeType="xml"
	                    attributeName="transform"
	                    type="rotate"
	                    from="0 402.1 580.2"
	                    to="360 402.1 580.2"
	                    dur="5s"
	                    repeatCount="indefinite"/>
</path>
  </g>
</svg>
